<svg xmlns="http://www.w3.org/2000/svg" viewBox="0 0 342.79 281.08"><defs><style>.cls-1{fill:#4894ef;}.cls-2{fill:#045ad0;}</style></defs><g id="Layer_2" data-name="Layer 2"><g id="Layer_1-2" data-name="Layer 1"><path class="cls-1" d="M111,90.5c53.41,0,79.83,71.41,128.51,55.41,21.07-6.93,33.7-56.43,103.32-78.35h0L272.63,281.08H219.86l-48.43-105.3L123,281.08H70.24L32.17,165.21S57.54,90.5,111,90.5Z"/><path class="cls-2" d="M231.83,90.5c-53.42,0-79.83,71.41-128.51,55.41C82.24,139,69.62,89.48,0,67.56H0L70.16,281.08h52.77l48.42-105.3,48.43,105.3h52.77l38.07-115.87S285.25,90.5,231.83,90.5Z"/><circle class="cls-2" cx="265.73" cy="17.29" r="17.29"/><circle class="cls-2" cx="213.49" cy="39.59" r="24.28"/><circle class="cls-2" cx="283.02" cy="66.16" r="16"/></g></g></svg>