<svg xmlns="http://www.w3.org/2000/svg" viewBox="0 0 1834.28 283.83"><defs><style>.cls-1{fill:#045ad0;}.cls-2{fill:#4894ef;}</style></defs><g id="Layer_2" data-name="Layer 2"><g id="Layer_1-2" data-name="Layer 1"><path class="cls-1" d="M401.63,283.52q-18.92,0-32.64-6.56t-21.2-17.84a44.77,44.77,0,0,1-7.47-25.32,46,46,0,0,1,7.16-25.47q7.17-11.13,22.73-17.23T411.08,185H454.4v27.46H416q-16.77,0-23,5.49a17.47,17.47,0,0,0-6.26,13.72,17.09,17.09,0,0,0,7.17,14.49q7.17,5.34,19.37,5.34A43.2,43.2,0,0,0,435,246a29.93,29.93,0,0,0,13.57-16.78l7.32,22.27A43.19,43.19,0,0,1,437,275.13Q423.29,283.53,401.63,283.52Zm50-2.44v-32l-3-7V184.69q0-15.25-9.3-23.79t-28.52-8.54A83,83,0,0,0,385,156.47a72.26,72.26,0,0,0-21.81,11.14l-16.77-33.25q13.41-9.77,32.33-14.8a149.08,149.08,0,0,1,38.44-5q37.51,0,58.26,17.69t20.74,55.22v93.64Z"/><path class="cls-1" d="M587.15,283.52a158.58,158.58,0,0,1-40.27-5q-19.21-5-30.81-12.66L531.63,232a119.53,119.53,0,0,0,27,11.13A109.5,109.5,0,0,0,589,247.53q16.47,0,23.33-4t6.87-11a9.35,9.35,0,0,0-5.34-8.69,46.75,46.75,0,0,0-14-4.43q-8.7-1.52-19.37-3.05a189,189,0,0,1-21.2-4.27,82.22,82.22,0,0,1-19.53-7.78,38.11,38.11,0,0,1-14.33-13.88Q520,181.65,520,167.61A44.45,44.45,0,0,1,529.19,140q9.15-12,25.93-18.76t40.57-6.71A158.57,158.57,0,0,1,630,118.34q17.24,3.82,29.13,10.53L643,162.73a84.78,84.78,0,0,0-23.64-9.46,103.74,103.74,0,0,0-23-2.74q-16.47,0-23.79,4.27t-7.32,11a10.17,10.17,0,0,0,5.49,9.3A43,43,0,0,0,585,179.81q8.85,1.53,19.52,3.05a184.19,184.19,0,0,1,21.05,4.27A82.9,82.9,0,0,1,645,194.91a38.28,38.28,0,0,1,14.34,13.88q5.33,8.85,5.34,22.87a42.24,42.24,0,0,1-9.16,26.7q-9.13,11.75-26.38,18.45T587.15,283.52Z"/><path class="cls-1" d="M785.82,114.53q19.51,0,34.92,7.78A56.47,56.47,0,0,1,845,146.1q8.85,16,8.85,41v93.95H806.25V194.45q0-19.83-8.69-29.28T773,155.71a41.9,41.9,0,0,0-20.29,4.88,34.12,34.12,0,0,0-14,14.34q-5,9.45-5,25v81.14H686.07V54.74h47.59V162.42L723,148.69a60.82,60.82,0,0,1,25.32-25.31Q764.77,114.53,785.82,114.53Z"/><path class="cls-1" d="M939.86,282.91q-17.4,0-31.12-5.8T887.08,261a38.07,38.07,0,0,1-7.93-23.79q0-16.17,11.59-29.44t39.66-27.3a257.74,257.74,0,0,0,24.1-13.88q8.84-6,12.5-11.59a21.75,21.75,0,0,0,3.66-12q0-9.15-6.1-14.64t-18-5.49q-12.81,0-19.68,6.25A20.38,20.38,0,0,0,920,144.73a27.2,27.2,0,0,0,4,14q4,6.72,16.78,19.22l92.73,92.42-12.2,13.43-97.61-97q-13.12-13.11-17.85-22.42A42.21,42.21,0,0,1,901.12,145a36.44,36.44,0,0,1,5.49-20.13,35.18,35.18,0,0,1,15.71-13.11q10.21-4.58,23.94-4.58,19.22,0,30.66,9.3t11.44,25.78a35.54,35.54,0,0,1-4.73,18q-4.74,8.24-15.41,16.16t-28.36,17.09q-15.25,7.94-24.1,14.79t-12.51,13.42a29.24,29.24,0,0,0-3.66,14.49q0,13.13,11.29,21.51t29.89,8.38a62.92,62.92,0,0,0,30.35-7.32q13.57-7.32,23-21.81t14-35.84L1025,206q-5.49,24.71-17.39,41.94a79.48,79.48,0,0,1-29,26.09Q961.52,282.92,939.86,282.91Z"/><path class="cls-1" d="M1095.94,281.08,1025.78,67.56H1077l60.7,189.12h-25.62l63.44-189.12h45.76l61,189.12h-24.71l62.22-189.12h47.29L1297,281.08h-52.47L1190.2,115.14h14l-55.52,165.94Z"/><path class="cls-1" d="M1454.93,283.52q-25.92,0-46.21-11a82.45,82.45,0,0,1-31.88-30.05q-11.6-19.05-11.59-43.46,0-24.72,11.59-43.78a81.41,81.41,0,0,1,31.88-29.89q20.28-10.83,46.21-10.83,26.23,0,46.67,10.83a81.22,81.22,0,0,1,32,29.89q11.59,19.06,11.59,43.78t-11.59,43.62a82.59,82.59,0,0,1-32,29.89Q1481.17,283.52,1454.93,283.52Zm0-39a42.48,42.48,0,0,0,21.51-5.34,39.17,39.17,0,0,0,14.94-15.71Q1497,213.07,1497,199q0-14.34-5.65-24.41a39.63,39.63,0,0,0-14.94-15.4,41.84,41.84,0,0,0-21.2-5.34,42.71,42.71,0,0,0-21.36,5.34,39.3,39.3,0,0,0-15.09,15.4q-5.65,10.06-5.65,24.41,0,14,5.65,24.4a38.85,38.85,0,0,0,15.09,15.71A42.07,42.07,0,0,0,1454.93,244.48Z"/><path class="cls-1" d="M1608.24,281.08,1549.07,117h44.84L1643,258.2h-21.66L1672.61,117h40.57l49.41,141.23h-20.74L1792.18,117h42.1l-59.49,164.11H1729L1685.11,160h13.73l-44.54,121.1Z"/><path class="cls-2" d="M111,90.5c53.41,0,79.83,71.41,128.51,55.41,21.07-6.93,33.7-56.43,103.32-78.35h0L272.63,281.08H219.86l-48.43-105.3L123,281.08H70.24L32.17,165.21S57.54,90.5,111,90.5Z"/><path class="cls-1" d="M231.83,90.5c-53.42,0-79.83,71.41-128.51,55.41C82.24,139,69.62,89.48,0,67.56H0L70.16,281.08h52.77l48.42-105.3,48.43,105.3h52.77l38.07-115.87S285.25,90.5,231.83,90.5Z"/><circle class="cls-1" cx="265.73" cy="17.29" r="17.29"/><circle class="cls-1" cx="213.49" cy="39.59" r="24.28"/><circle class="cls-1" cx="283.02" cy="66.16" r="16"/></g></g></svg>